<svg width="103" height="20" viewBox="0 0 103 20" fill="none" xmlns="http://www.w3.org/2000/svg">
<path d="M2.7 19.521V16.524H7.641C8.523 16.524 9.207 16.254 9.693 15.714C10.197 15.174 10.449 14.535 10.449 13.797C10.449 13.293 10.341 12.834 10.125 12.42C9.909 12.006 9.585 11.682 9.153 11.448C8.739 11.196 8.235 11.07 7.641 11.07H2.7V8.1H7.236C7.992 8.1 8.595 7.911 9.045 7.533C9.513 7.155 9.747 6.588 9.747 5.832C9.747 5.058 9.513 4.482 9.045 4.104C8.595 3.726 7.992 3.537 7.236 3.537H2.7V0.54H7.668C8.928 0.54 9.981 0.773999 10.827 1.242C11.691 1.692 12.339 2.295 12.771 3.051C13.203 3.789 13.419 4.599 13.419 5.481C13.419 6.561 13.086 7.497 12.42 8.289C11.772 9.063 10.818 9.639 9.558 10.017L9.72 8.829C11.124 9.225 12.204 9.882 12.96 10.8C13.734 11.7 14.121 12.789 14.121 14.067C14.121 15.075 13.869 15.993 13.365 16.821C12.879 17.631 12.159 18.288 11.205 18.792C10.269 19.278 9.126 19.521 7.776 19.521H2.7ZM-1.2666e-07 19.521V0.54H3.645V19.521H-1.2666e-07ZM16.6552 19.521V6.48H20.1922V19.521H16.6552ZM20.1922 12.312L18.8152 11.394C18.9772 9.792 19.4452 8.532 20.2192 7.614C20.9932 6.678 22.1092 6.21 23.5672 6.21C24.1972 6.21 24.7642 6.318 25.2682 6.534C25.7722 6.732 26.2312 7.065 26.6452 7.533L24.4312 10.071C24.2332 9.855 23.9902 9.693 23.7022 9.585C23.4322 9.477 23.1172 9.423 22.7572 9.423C22.0012 9.423 21.3802 9.666 20.8942 10.152C20.4262 10.62 20.1922 11.34 20.1922 12.312ZM32.9725 19.791C31.7845 19.791 30.7135 19.494 29.7595 18.9C28.8055 18.306 28.0585 17.496 27.5185 16.47C26.9785 15.444 26.7085 14.292 26.7085 13.014C26.7085 11.718 26.9785 10.557 27.5185 9.531C28.0585 8.505 28.8055 7.695 29.7595 7.101C30.7135 6.507 31.7845 6.21 32.9725 6.21C33.9085 6.21 34.7455 6.399 35.4835 6.777C36.2215 7.155 36.8065 7.686 37.2385 8.37C37.6885 9.036 37.9315 9.792 37.9675 10.638V15.336C37.9315 16.2 37.6885 16.965 37.2385 17.631C36.8065 18.297 36.2215 18.828 35.4835 19.224C34.7455 19.602 33.9085 19.791 32.9725 19.791ZM33.6205 16.524C34.6105 16.524 35.4115 16.2 36.0235 15.552C36.6355 14.886 36.9415 14.031 36.9415 12.987C36.9415 12.303 36.7975 11.7 36.5095 11.178C36.2395 10.638 35.8525 10.224 35.3485 9.936C34.8625 9.63 34.2865 9.477 33.6205 9.477C32.9725 9.477 32.3965 9.63 31.8925 9.936C31.4065 10.224 31.0195 10.638 30.7315 11.178C30.4615 11.7 30.3265 12.303 30.3265 12.987C30.3265 13.689 30.4615 14.31 30.7315 14.85C31.0195 15.372 31.4065 15.786 31.8925 16.092C32.3965 16.38 32.9725 16.524 33.6205 16.524ZM36.7525 19.521V16.011L37.3195 12.825L36.7525 9.693V6.48H40.2625V19.521H36.7525ZM52.1665 19.521V12.042C52.1665 11.268 51.9235 10.638 51.4375 10.152C50.9515 9.666 50.3215 9.423 49.5475 9.423C49.0435 9.423 48.5935 9.531 48.1975 9.747C47.8015 9.963 47.4865 10.269 47.2525 10.665C47.0365 11.061 46.9285 11.52 46.9285 12.042L45.5515 11.34C45.5515 10.314 45.7675 9.423 46.1995 8.667C46.6495 7.893 47.2615 7.29 48.0355 6.858C48.8275 6.426 49.7185 6.21 50.7085 6.21C51.6625 6.21 52.5175 6.453 53.2735 6.939C54.0295 7.407 54.6235 8.028 55.0555 8.802C55.4875 9.558 55.7035 10.377 55.7035 11.259V19.521H52.1665ZM43.3915 19.521V6.48H46.9285V19.521H43.3915ZM64.0607 19.791C62.8547 19.791 61.7747 19.494 60.8207 18.9C59.8667 18.306 59.1107 17.496 58.5527 16.47C58.0127 15.444 57.7427 14.292 57.7427 13.014C57.7427 11.718 58.0127 10.557 58.5527 9.531C59.1107 8.505 59.8577 7.695 60.7937 7.101C61.7477 6.507 62.8367 6.21 64.0607 6.21C64.9967 6.21 65.8337 6.399 66.5717 6.777C67.3277 7.155 67.9307 7.686 68.3807 8.37C68.8487 9.036 69.1007 9.792 69.1367 10.638V15.282C69.1007 16.128 68.8577 16.893 68.4077 17.577C67.9577 18.261 67.3547 18.801 66.5987 19.197C65.8427 19.593 64.9967 19.791 64.0607 19.791ZM64.6547 16.524C65.3207 16.524 65.8967 16.38 66.3827 16.092C66.8867 15.786 67.2737 15.372 67.5437 14.85C67.8317 14.31 67.9757 13.689 67.9757 12.987C67.9757 12.303 67.8317 11.7 67.5437 11.178C67.2737 10.638 66.8867 10.224 66.3827 9.936C65.8967 9.63 65.3297 9.477 64.6817 9.477C64.0157 9.477 63.4307 9.63 62.9267 9.936C62.4407 10.242 62.0537 10.656 61.7657 11.178C61.4957 11.7 61.3607 12.303 61.3607 12.987C61.3607 13.689 61.4957 14.31 61.7657 14.85C62.0537 15.372 62.4497 15.786 62.9537 16.092C63.4577 16.38 64.0247 16.524 64.6547 16.524ZM71.2967 19.521H67.7867V16.011L68.3537 12.825L67.7597 9.693V-1.43051e-06H71.2967V19.521ZM80.5547 19.791C79.2407 19.791 78.0527 19.494 76.9907 18.9C75.9467 18.288 75.1097 17.469 74.4797 16.443C73.8677 15.399 73.5617 14.238 73.5617 12.96C73.5617 11.682 73.8677 10.539 74.4797 9.531C75.0917 8.505 75.9287 7.695 76.9907 7.101C78.0527 6.489 79.2317 6.183 80.5277 6.183C81.8597 6.183 83.0477 6.489 84.0917 7.101C85.1537 7.695 85.9907 8.505 86.6027 9.531C87.2147 10.539 87.5207 11.682 87.5207 12.96C87.5207 14.238 87.2147 15.399 86.6027 16.443C85.9907 17.469 85.1537 18.288 84.0917 18.9C83.0477 19.494 81.8687 19.791 80.5547 19.791ZM80.5277 16.497C81.1937 16.497 81.7787 16.353 82.2827 16.065C82.8047 15.759 83.2007 15.345 83.4707 14.823C83.7587 14.283 83.9027 13.671 83.9027 12.987C83.9027 12.303 83.7587 11.7 83.4707 11.178C83.1827 10.656 82.7867 10.251 82.2827 9.963C81.7787 9.657 81.1937 9.504 80.5277 9.504C79.8797 9.504 79.3037 9.657 78.7997 9.963C78.2957 10.251 77.8997 10.656 77.6117 11.178C77.3237 11.7 77.1797 12.303 77.1797 12.987C77.1797 13.671 77.3237 14.283 77.6117 14.823C77.8997 15.345 78.2957 15.759 78.7997 16.065C79.3037 16.353 79.8797 16.497 80.5277 16.497ZM98.5728 19.521V12.042C98.5728 11.268 98.3298 10.638 97.8438 10.152C97.3578 9.666 96.7278 9.423 95.9538 9.423C95.4498 9.423 94.9998 9.531 94.6038 9.747C94.2078 9.963 93.8928 10.269 93.6588 10.665C93.4428 11.061 93.3348 11.52 93.3348 12.042L91.9578 11.34C91.9578 10.314 92.1738 9.423 92.6058 8.667C93.0558 7.893 93.6678 7.29 94.4418 6.858C95.2338 6.426 96.1248 6.21 97.1148 6.21C98.0688 6.21 98.9238 6.453 99.6798 6.939C100.436 7.407 101.03 8.028 101.462 8.802C101.894 9.558 102.11 10.377 102.11 11.259V19.521H98.5728ZM89.7978 19.521V6.48H93.3348V19.521H89.7978Z" fill="#05255F"/>
</svg>
